<?xml version="1.0" standalone="no"?>
<!DOCTYPE svg PUBLIC "-//W3C//DTD SVG 20010904//EN"
 "http://www.w3.org/TR/2001/REC-SVG-20010904/DTD/svg10.dtd">
<svg version="1.0" xmlns="http://www.w3.org/2000/svg"
 width="1000.000000pt" height="1000.000000pt" viewBox="0 0 1000.000000 1000.000000"
 preserveAspectRatio="xMidYMid meet">
<metadata>
Created by potrace 1.14, written by Peter Selinger 2001-2017
</metadata>
<g transform="translate(0.000000,1000.000000) scale(0.100000,-0.100000)"
fill="#000000" stroke="none">
<path d="M4869 9675 c-3 -2 -21 -6 -39 -9 -19 -2 -62 -11 -95 -19 -33 -9 -89
-18 -125 -21 -88 -8 -199 -18 -230 -21 -47 -5 -145 -17 -160 -20 -8 -1 -40 -6
-70 -11 -30 -4 -57 -8 -60 -9 -16 -5 -93 -18 -229 -40 -186 -30 -172 -28 -296
-59 -152 -38 -402 -118 -490 -156 -11 -5 -85 -36 -165 -70 -140 -60 -488 -228
-600 -291 -286 -160 -527 -330 -775 -548 -78 -69 -372 -367 -439 -446 -38 -44
-78 -91 -90 -105 -78 -91 -228 -310 -334 -486 -189 -315 -330 -618 -448 -961
-15 -45 -32 -81 -37 -80 -9 2 -28 -65 -40 -138 -3 -16 -27 -142 -55 -280 -77
-386 -92 -478 -83 -489 4 -6 4 -45 1 -86 -8 -80 -5 -595 3 -645 3 -16 8 -61
11 -100 4 -38 9 -81 11 -95 3 -14 7 -45 10 -70 5 -40 15 -101 29 -180 55 -302
194 -744 334 -1060 76 -174 213 -429 304 -568 10 -15 23 -37 29 -49 7 -13 16
-23 21 -23 4 0 8 -5 8 -11 0 -6 9 -23 21 -37 11 -15 60 -81 108 -147 159 -215
417 -497 626 -684 88 -78 276 -228 383 -304 400 -285 867 -512 1402 -680 189
-60 411 -119 418 -113 2 3 -15 10 -38 16 -75 20 -37 19 45 -1 44 -11 87 -22
95 -24 8 -2 25 -4 37 -4 12 -1 24 -9 27 -18 6 -17 83 -43 281 -94 126 -33 288
-29 308 6 4 9 11 13 15 11 4 -3 57 -8 117 -12 110 -7 151 -14 80 -14 -41 0
-43 -8 -4 -15 98 -19 566 -27 699 -12 189 21 279 37 485 88 88 21 171 40 185
43 23 4 90 18 148 31 14 4 22 1 22 -8 0 -29 20 -35 73 -20 146 41 318 97 457
147 85 31 160 58 165 60 15 5 39 15 185 77 159 67 432 202 526 259 36 22 67
40 69 40 18 0 315 197 460 305 227 168 524 440 667 609 18 22 46 53 61 70 48
52 189 235 274 356 274 391 505 861 657 1335 33 104 63 213 72 262 2 12 8 33
13 45 5 13 9 28 10 33 1 10 10 63 17 100 3 11 11 62 20 114 15 94 17 112 31
251 5 41 8 212 8 380 0 306 -6 438 -29 595 -3 17 -8 53 -11 80 -4 28 -13 82
-20 120 -8 39 -17 86 -20 105 -32 199 -148 572 -258 830 -239 563 -554 1018
-1031 1495 -341 341 -548 501 -896 695 -322 180 -632 325 -925 433 -287 105
-371 130 -546 162 -13 3 -44 9 -69 14 -88 18 -195 40 -222 45 -36 6 -50 15
-43 27 4 5 3 9 -2 10 -4 0 -15 2 -24 4 -8 1 -42 6 -75 9 -60 7 -110 14 -153
21 -78 13 -183 17 -177 6 11 -17 -183 -3 -284 21 -78 18 -329 36 -341 23z"/>
</g>
</svg>
